<svg xmlns="http://www.w3.org/2000/svg" width="24" height="24" viewBox="0 0 24 24" fill="none">
  <path d="M10.7308 11.3332C10.7308 11.086 10.8052 10.8443 10.9447 10.6387C11.0841 10.4332 11.2824 10.273 11.5143 10.1784C11.7462 10.0837 12.0014 10.059 12.2476 10.1072C12.4938 10.1555 12.72 10.2745 12.8975 10.4493C13.075 10.6241 13.1959 10.8469 13.2448 11.0893C13.2938 11.3318 13.2687 11.5831 13.1726 11.8115C13.0766 12.0399 12.9139 12.2352 12.7051 12.3725C12.4964 12.5099 12.251 12.5832 12 12.5832C11.6634 12.5832 11.3405 12.4515 11.1025 12.2171C10.8645 11.9826 10.7308 11.6647 10.7308 11.3332ZM16.6538 12.5832C16.9049 12.5832 17.1503 12.5099 17.359 12.3725C17.5677 12.2352 17.7304 12.0399 17.8265 11.8115C17.9225 11.5831 17.9477 11.3318 17.8987 11.0893C17.8497 10.8469 17.7288 10.6241 17.5513 10.4493C17.3738 10.2745 17.1477 10.1555 16.9015 10.1072C16.6553 10.059 16.4001 10.0837 16.1681 10.1784C15.9362 10.273 15.738 10.4332 15.5985 10.6387C15.4591 10.8443 15.3846 11.086 15.3846 11.3332C15.3846 11.6647 15.5183 11.9826 15.7564 12.2171C15.9944 12.4515 16.3172 12.5832 16.6538 12.5832ZM23 4.66664V17.9997C23 18.4418 22.8217 18.8657 22.5043 19.1782C22.187 19.4908 21.7565 19.6664 21.3077 19.6664H15.0176L13.448 22.1965C13.2969 22.4423 13.0839 22.6454 12.8296 22.7862C12.5753 22.927 12.2883 23.0006 11.9966 23C11.7049 22.9994 11.4183 22.9245 11.1646 22.7826C10.911 22.6407 10.6988 22.4367 10.5488 22.1903L8.9824 19.6664H2.69231C2.24348 19.6664 1.81303 19.4908 1.49567 19.1782C1.1783 18.8657 1 18.4418 1 17.9997V4.66664C1 4.22462 1.1783 3.8007 1.49567 3.48815C1.81303 3.17559 2.24348 3 2.69231 3H21.3077C21.7565 3 22.187 3.17559 22.5043 3.48815C22.8217 3.8007 23 4.22462 23 4.66664ZM21.3077 4.66664H2.69231V17.9997H8.9824C9.27374 18.0005 9.55999 18.0749 9.81372 18.2159C10.0675 18.3569 10.2802 18.5597 10.4314 18.8049L12 21.333L13.5675 18.7997C13.7194 18.5553 13.9326 18.3533 14.1865 18.2133C14.4404 18.0732 14.7266 17.9997 15.0176 17.9997H21.3077V4.66664ZM7.34615 12.5832C7.59718 12.5832 7.84258 12.5099 8.0513 12.3725C8.26002 12.2352 8.42271 12.0399 8.51877 11.8115C8.61484 11.5831 8.63997 11.3318 8.591 11.0893C8.54202 10.8469 8.42114 10.6241 8.24364 10.4493C8.06613 10.2745 7.83998 10.1555 7.59377 10.1072C7.34756 10.059 7.09236 10.0837 6.86044 10.1784C6.62852 10.273 6.43029 10.4332 6.29083 10.6387C6.15136 10.8443 6.07692 11.086 6.07692 11.3332C6.07692 11.6647 6.21065 11.9826 6.44867 12.2171C6.6867 12.4515 7.00953 12.5832 7.34615 12.5832Z" fill="#232323"/>
</svg>