<svg xmlns="http://www.w3.org/2000/svg" width="19" height="18" viewBox="0 0 19 18" fill="none">
  <g clip-path="url(#clip0_747_526)">
    <path d="M19 6.4816C19 6.67261 18.923 6.85579 18.7859 6.99085C18.6488 7.12591 18.4629 7.20178 18.269 7.20178H16.807V8.64214C16.807 8.83314 16.73 9.01632 16.5929 9.15138C16.4558 9.28644 16.2698 9.36232 16.076 9.36232C15.8821 9.36232 15.6962 9.28644 15.5591 9.15138C15.422 9.01632 15.345 8.83314 15.345 8.64214V7.20178H13.8829C13.6891 7.20178 13.5031 7.12591 13.366 6.99085C13.2289 6.85579 13.1519 6.67261 13.1519 6.4816C13.1519 6.2906 13.2289 6.10742 13.366 5.97236C13.5031 5.8373 13.6891 5.76143 13.8829 5.76143H15.345V4.32107C15.345 4.13007 15.422 3.94689 15.5591 3.81183C15.6962 3.67677 15.8821 3.60089 16.076 3.60089C16.2698 3.60089 16.4558 3.67677 16.5929 3.81183C16.73 3.94689 16.807 4.13007 16.807 4.32107V5.76143H18.269C18.4629 5.76143 18.6488 5.8373 18.7859 5.97236C18.923 6.10742 19 6.2906 19 6.4816ZM10.2279 2.88071H10.9589V3.60089C10.9589 3.79189 11.0359 3.97507 11.173 4.11013C11.3101 4.24519 11.496 4.32107 11.6899 4.32107C11.8838 4.32107 12.0697 4.24519 12.2068 4.11013C12.3439 3.97507 12.4209 3.79189 12.4209 3.60089V2.88071H13.1519C13.3458 2.88071 13.5317 2.80484 13.6688 2.66978C13.8059 2.53472 13.8829 2.35154 13.8829 2.16053C13.8829 1.96953 13.8059 1.78635 13.6688 1.65129C13.5317 1.51623 13.3458 1.44036 13.1519 1.44036H12.4209V0.720178C12.4209 0.529175 12.3439 0.345995 12.2068 0.210935C12.0697 0.0758757 11.8838 0 11.6899 0C11.496 0 11.3101 0.0758757 11.173 0.210935C11.0359 0.345995 10.9589 0.529175 10.9589 0.720178V1.44036H10.2279C10.034 1.44036 9.84808 1.51623 9.71099 1.65129C9.5739 1.78635 9.49688 1.96953 9.49688 2.16053C9.49688 2.35154 9.5739 2.53472 9.71099 2.66978C9.84808 2.80484 10.034 2.88071 10.2279 2.88071ZM16.8773 11.6129C16.9624 11.7105 17.0194 11.8287 17.0424 11.9554C17.0654 12.0821 17.0535 12.2125 17.008 12.3331C16.5008 13.6959 15.6532 14.9109 14.5437 15.866C13.4341 16.821 12.0982 17.4854 10.6593 17.7976C9.22038 18.1099 7.7248 18.0601 6.31059 17.6528C4.89638 17.2455 3.60909 16.4938 2.56753 15.467C1.52597 14.4403 0.763688 13.1717 0.351043 11.7782C-0.0616032 10.3847 -0.111321 8.91126 0.206477 7.49385C0.524275 6.07644 1.19935 4.76072 2.1694 3.66813C3.13945 2.57553 4.37322 1.74126 5.75686 1.24231C5.87864 1.19837 6.0101 1.18714 6.13774 1.20977C6.26538 1.2324 6.38462 1.28809 6.48321 1.3711C6.5818 1.45412 6.65619 1.56148 6.69876 1.68218C6.74133 1.80287 6.75054 1.93255 6.72544 2.05791C6.46927 3.3353 6.53639 4.65518 6.92086 5.90095C7.30534 7.14672 7.99533 8.28002 8.92989 9.20073C9.86445 10.1214 11.0148 10.8012 12.2793 11.18C13.5438 11.5588 14.8835 11.6249 16.1801 11.3725C16.3075 11.348 16.4393 11.3573 16.5618 11.3996C16.6843 11.4418 16.7933 11.5154 16.8773 11.6129ZM15.1055 12.9524C14.942 12.9605 14.7775 12.965 14.6139 12.965C12.0941 12.9624 9.67818 11.9749 7.89652 10.2193C6.11486 8.46372 5.113 6.08344 5.11083 3.60089C5.11083 3.43975 5.11083 3.27771 5.12362 3.11657C4.151 3.66797 3.32028 4.43256 2.69584 5.35112C2.0714 6.26968 1.67 7.31754 1.52273 8.41351C1.37546 9.50949 1.48629 10.6242 1.84661 11.6711C2.20694 12.7181 2.8071 13.6693 3.60058 14.4511C4.39407 15.2328 5.35959 15.8241 6.42232 16.1791C7.48506 16.534 8.61649 16.6432 9.72894 16.4981C10.8414 16.3531 11.905 15.9576 12.8374 15.3424C13.7698 14.7272 14.5459 13.9088 15.1055 12.9506V12.9524Z" fill="white"/>
  </g>
  <defs>
    <clipPath id="clip0_747_526">
      <rect width="19" height="18" fill="white"/>
    </clipPath>
  </defs>
</svg>