<svg xmlns="http://www.w3.org/2000/svg" width="157" height="57" viewBox="0 0 157 57" fill="none">
  <g clip-path="url(#clip0_747_551)">
    <path d="M113.483 10.4146H0V46.0063H113.483V10.4146Z" fill="#FF0517"/>
    <mask id="mask0_747_551" style="mask-type:luminance" maskUnits="userSpaceOnUse" x="0" y="0" width="157" height="57">
      <path d="M157 0H0V56.4252H157V0Z" fill="white"/>
    </mask>
    <g mask="url(#mask0_747_551)">
      <path fill-rule="evenodd" clip-rule="evenodd" d="M19.0521 37.328H13.6514L18.4895 30.7397C16.0153 29.8019 14.7775 28.0133 14.7775 25.3748C14.7775 23.2387 15.4687 21.6588 16.851 20.6351C18.2333 19.61 19.9914 19.0981 22.124 19.0981H29.6752V37.328H24.9398V31.3899H23.276L19.0521 37.328ZM22.1752 23.2655C20.486 23.2655 19.6409 23.9686 19.6409 25.3752C19.6409 26.7814 20.486 27.4845 22.1752 27.4845H24.9398V23.2655H22.1752ZM51.2309 19.0986H55.7105V37.3284H50.9751V27.6403L47.1355 33.6303H44.422L40.582 27.6148V37.3284H35.8466V19.0986H40.3262L45.7785 27.6403L51.2309 19.0986ZM65.066 37.328H60.2025L67.2417 19.0981H72.3614L79.401 37.328H74.5371L73.5133 34.4637H66.0898L65.066 37.328ZM69.341 25.2964L67.4979 30.5574H72.1052L70.2617 25.2964C70.0575 24.7062 69.9036 24.09 69.8009 23.4478C69.6995 24.09 69.546 24.7062 69.341 25.2964ZM86.9032 19.0986H99.8301V37.3284H95.0943V23.3959H91.2289C91.1271 24.8365 91.0163 26.0604 90.8963 27.0671C90.7766 28.0747 90.6147 29.1727 90.4101 30.3621C90.2051 31.5507 89.9494 32.5318 89.6416 33.3048C89.3352 34.0777 88.9549 34.8108 88.5026 35.5049C88.0507 36.1999 87.5005 36.4807 86.8516 36.8192C86.2032 37.1578 85.4609 37.3284 84.6247 37.3284C83.8909 37.3284 83.157 37.2062 82.4231 36.963V33.0047C82.799 33.1261 83.2073 33.1556 83.652 33.1091C84.0439 33.0688 84.3983 32.8923 84.7141 32.5623C85.0299 32.2322 85.2901 31.7549 85.4947 31.1293C85.6997 30.5045 85.8745 29.8704 86.0195 29.2283C86.1649 28.5856 86.2841 27.7796 86.378 26.8069C86.4718 25.8342 86.5398 24.9879 86.5825 24.2673C86.6248 23.5472 86.6808 22.6444 86.7489 21.5594C86.8183 20.4743 86.8694 19.6539 86.9032 19.0986Z" fill="white"/>
    </g>
    <mask id="mask1_747_551" style="mask-type:luminance" maskUnits="userSpaceOnUse" x="0" y="0" width="157" height="57">
      <path d="M157 0H0V56.4252H157V0Z" fill="white"/>
    </mask>
    <g mask="url(#mask1_747_551)">
      <path fill-rule="evenodd" clip-rule="evenodd" d="M157 0L116.896 10.4172V46.0085L157 56.4252V0Z" fill="#0F80FF"/>
    </g>
    <mask id="mask2_747_551" style="mask-type:luminance" maskUnits="userSpaceOnUse" x="0" y="0" width="157" height="57">
      <path d="M157 0H0V56.4252H157V0Z" fill="white"/>
    </mask>
    <g mask="url(#mask2_747_551)">
      <path fill-rule="evenodd" clip-rule="evenodd" d="M135.667 14.7544L139.933 13.4526V35.5888L143.347 36.0223L143.346 42.967L130.974 39.929V34.2865L134.387 34.7205L134.386 21.6988L130.974 23.8698V18.2058L135.667 14.7544Z" fill="white"/>
    </g>
  </g>
  <defs>
    <clipPath id="clip0_747_551">
      <rect width="157" height="57" fill="white"/>
    </clipPath>
  </defs>
</svg>