<svg width="284" height="137" viewBox="0 0 284 137" fill="none" xmlns="http://www.w3.org/2000/svg">
<path d="M88.0771 89.2852H105.982V95.1142H97.4647V136.071H88.0771V89.2852Z" fill="white"/>
<path d="M116.597 118.507L118.206 95.1142H118.745L120.354 118.507H116.597ZM106.201 136.071H115.392L116.262 123.646H120.688L121.562 136.071H130.75L125.854 89.2852H111.097L106.201 136.071Z" fill="white"/>
<path d="M144.194 119.696V128.516C144.194 129.705 145.118 130.05 145.657 130.05C146.542 130.05 147.158 129.321 147.158 128.516V117.625C147.158 116.168 146.888 114.557 143.386 114.557H139.575V109.418H143.54C146.196 109.418 147.158 108.805 147.158 105.929V96.6481C147.158 95.8428 146.542 95.1142 145.657 95.1142C145.118 95.1142 144.194 95.421 144.194 96.6481V104.28H134.803V97.6452C134.803 94.3856 135.188 89.2852 141.769 89.2852H149.544C156.126 89.2852 156.549 94.3856 156.549 97.6452V105.123C156.549 110.224 152.97 111.604 150.16 111.489V111.949C156.472 111.796 156.549 116.628 156.549 118.277V127.711C156.549 131.009 156.126 136.071 149.544 136.071H141.769C135.188 136.071 134.803 131.009 134.803 127.711V119.696H144.194Z" fill="white"/>
<path d="M162.708 89.2852H184.454V136.071H175.063V95.1142H172.099V136.071H162.708V89.2852Z" fill="white"/>
<path d="M200.004 115.017V95.1142H201.235C202.236 95.1142 202.967 95.9578 202.967 97.4535V112.678C202.967 114.174 202.236 115.017 201.235 115.017H200.004ZM190.612 136.071H200.004V120.156H205.392C211.935 120.156 212.359 115.094 212.359 111.796V97.6452C212.359 94.3856 211.935 89.2852 205.392 89.2852H190.612V136.071Z" fill="white"/>
<path d="M230.872 128.516C230.872 129.321 230.256 130.05 229.371 130.05C228.832 130.05 227.908 129.705 227.908 128.516V96.6481C227.908 95.421 228.832 95.1142 229.371 95.1142C230.256 95.1142 230.872 95.8428 230.872 96.6481V128.516ZM218.517 127.711C218.517 131.009 218.94 136.071 225.483 136.071H233.296C239.84 136.071 240.263 131.009 240.263 127.711V97.6452C240.263 94.3856 239.84 89.2852 233.296 89.2852H225.483C218.94 89.2852 218.517 94.3856 218.517 97.6452V127.711Z" fill="white"/>
<path d="M270.824 89.2852H283.064V136.071H273.672V106.734H273.326L268.476 136.071H260.971L256.16 106.734H255.813V136.071H246.422V89.2852H258.623L264.743 122.188L270.824 89.2852Z" fill="white"/>
<path d="M75.9069 25.3193C73.0317 12.7792 65.8266 2.57844 64.8335 0.929443C63.2631 3.26872 57.5167 12.2807 54.5954 22.2514C51.4046 33.4109 50.9351 43.3049 52.0358 53.0071C53.129 62.7477 57.2588 72.7568 57.2588 72.7568C59.4527 77.9722 62.7397 83.6095 64.8797 86.3706C68.0166 82.3056 75.2256 70.1874 77.4734 54.3877C78.7243 45.5675 78.7781 37.8593 75.9069 25.3193ZM64.8335 83.226C63.421 80.5799 61.2271 75.5562 61.0192 67.7331C60.9653 60.2167 63.9944 53.7357 64.8797 52.3935C65.6687 53.7357 68.2783 59.373 68.5901 67.0811C68.8018 74.5975 66.2923 80.5416 64.8335 83.226ZM75.0716 46.6029C74.9639 51.3965 74.3904 56.4585 73.6591 59.4881C73.9208 54.2726 73.2934 46.948 72.0926 41.1957C70.8917 35.4817 67.4931 25.8945 64.7796 21.4844C62.274 25.7028 59.1872 33.9861 57.5706 41.1573C55.9464 48.3286 55.9002 57.0337 55.9002 59.6415C55.4691 57.4556 54.3914 49.5941 54.6955 41.7326C54.9495 35.2516 56.4736 28.5406 57.3089 25.4727C60.4958 15.2336 64.1022 8.6759 64.7796 7.64047C65.457 8.6759 69.9988 16.7675 72.3543 25.2426C74.6983 33.7177 75.1717 41.8476 75.0716 46.6029Z" fill="white"/>
<path d="M69.71 89.285H47.852V103.896C47.8712 103.896 47.8866 103.858 47.9059 103.858C53.0557 98.7188 61.4079 98.7188 66.5616 103.858C71.7114 108.958 71.7114 117.28 66.5616 122.418C66.5385 122.457 66.5154 122.457 66.4923 122.495C66.4654 122.495 66.4384 122.533 66.4153 122.572C61.277 127.634 54.5645 130.165 47.852 130.165C41.1087 130.165 34.3654 127.634 29.2232 122.495C20.1552 113.483 19.0813 99.4858 25.994 89.285C26.9254 87.9044 27.9993 86.6006 29.2232 85.3734C34.3654 80.2347 41.1087 77.7037 47.852 77.7037V42.5762C21.9411 42.5762 0.9375 63.4762 0.9375 89.285C0.9375 115.094 21.9411 136.032 47.852 136.032C61.3617 136.032 73.532 130.318 82.092 121.23V89.285H69.71Z" fill="white"/>
</svg>
