<svg xmlns="http://www.w3.org/2000/svg" width="14" height="25" viewBox="0 0 14 25" fill="none">
  <path d="M7.20771 0.5C3.8704 0.5 1.16504 3.20545 1.16504 6.54267C1.16504 9.87999 3.8704 12.5856 7.20771 12.5856C10.545 12.5856 13.2504 9.87999 13.2504 6.54267C13.2504 3.20545 10.545 0.5 7.20771 0.5ZM7.20771 9.04075C5.82818 9.04075 4.70981 7.92229 4.70981 6.54276C4.70981 5.16323 5.82818 4.04485 7.20771 4.04485C8.58724 4.04485 9.70562 5.16323 9.70562 6.54276C9.70562 7.92229 8.58724 9.04075 7.20771 9.04075Z" fill="#F7931E"/>
  <path d="M9.43911 18.0751C11.8582 17.5822 13.3079 16.4366 13.3846 16.3751C14.0925 15.8074 14.2062 14.7734 13.6385 14.0654C13.0709 13.3575 12.0369 13.2438 11.3288 13.8114C11.3139 13.8235 9.76771 15.0096 7.22371 15.0113C4.6798 15.0096 3.10095 13.8235 3.08599 13.8114C2.37794 13.2438 1.34396 13.3575 0.776339 14.0654C0.208633 14.7734 0.322347 15.8074 1.03023 16.3751C1.10797 16.4375 2.61747 17.6129 5.10439 18.0942L1.6384 21.7164C1.00852 22.3696 1.02746 23.4098 1.68069 24.0396C1.99952 24.3471 2.41045 24.4999 2.82103 24.4999C3.2515 24.4999 3.68154 24.3317 4.00392 23.9973L7.2238 20.5673L10.7689 24.0195C11.4112 24.6608 12.4514 24.6598 13.0925 24.0177C13.7336 23.3755 13.7328 22.3352 13.0907 21.6941L9.43911 18.0751Z" fill="#F7931E"/>
</svg>