<svg xmlns="http://www.w3.org/2000/svg" width="24" height="24" viewBox="0 0 24 24" fill="none">
  <path d="M21.7914 11.1604L14.6484 4.20402C14.5486 4.10668 14.4213 4.04035 14.2828 4.01344C14.1442 3.98652 14.0006 4.00023 13.87 4.05282C13.7395 4.10541 13.6279 4.19452 13.5493 4.30888C13.4708 4.42324 13.4288 4.55772 13.4287 4.69531V8.20393C11.1126 8.39697 8.55454 9.50129 6.45003 11.2395C3.91605 13.3334 2.33835 16.0316 2.00709 18.8367C1.9812 19.0548 2.02661 19.2753 2.13684 19.4668C2.24708 19.6583 2.41653 19.8111 2.62108 19.9033C2.82563 19.9956 3.05485 20.0227 3.27613 19.9808C3.49741 19.9388 3.69947 19.83 3.85355 19.6697C4.83571 18.6515 8.33042 15.4316 13.4287 15.1481V18.608C13.4288 18.7456 13.4708 18.8801 13.5493 18.9945C13.6279 19.1088 13.7395 19.1979 13.87 19.2505C14.0006 19.3031 14.1442 19.3168 14.2828 19.2899C14.4213 19.263 14.5486 19.1967 14.6484 19.0993L21.7914 12.143C21.925 12.0126 22 11.8359 22 11.6517C22 11.4675 21.925 11.2908 21.7914 11.1604ZM14.8573 16.9289V14.4342C14.8573 14.2497 14.7821 14.0728 14.6481 13.9423C14.5142 13.8119 14.3325 13.7386 14.143 13.7386C11.6358 13.7386 9.19383 14.376 6.88486 15.6342C5.7089 16.2779 4.61322 17.0517 3.61962 17.9402C4.13749 15.8672 5.44287 13.896 7.37416 12.3004C9.44741 10.5882 11.9778 9.56477 14.143 9.56477C14.3325 9.56477 14.5142 9.49148 14.6481 9.36102C14.7821 9.23056 14.8573 9.05362 14.8573 8.86913V6.37528L20.2762 11.6517L14.8573 16.9289Z" fill="#232323"/>
</svg>