<svg xmlns="http://www.w3.org/2000/svg" width="31" height="35" viewBox="0 0 31 35" fill="none">
  <g clip-path="url(#clip0_747_318)">
    <path d="M28.9605 34.9224L20.6761 32.4286C19.5648 32.1049 19.1202 31.4705 19.1202 30.5386V13.8042C19.1114 12.7356 19.5648 11.7644 20.8961 12.098L29.3575 14.6421C30.565 15.0292 30.9774 15.5969 30.9608 16.4785V33.2478C30.9741 34.4499 30.1481 35.2549 28.9605 34.9224Z" fill="url(#paint0_linear_747_318)"/>
    <path d="M14.574 0.129064L1.62983 4.39688C1.74594 4.3575 2.06661 4.25578 2.06661 4.25578C2.06661 4.25578 1.38546 4.64406 1.39762 5.10563C1.40868 5.46985 1.71829 5.74438 2.1595 5.89313L2.48017 5.99485C6.80704 7.42 11.0731 8.81344 15.4 10.243C16.5433 10.6455 16.989 11.5347 16.989 12.4742V1.62094C16.989 0.379533 15.9097 -0.30078 14.574 0.129064Z" fill="url(#paint1_linear_747_318)"/>
    <path d="M15.6518 20.4316L2.23329 24.847C2.2192 24.8538 2.20435 24.859 2.18906 24.8623C2.18574 24.8623 2.18132 24.8623 2.178 24.8656L1.99665 24.9247C1.9856 24.9291 1.97675 24.9323 1.96459 24.9323C1.24362 25.2386 1.16733 26.0808 2.09286 26.503L2.01324 26.4789L14.9817 30.7511C15.936 31.0595 16.9831 30.657 16.9831 29.3139V18.6641C16.9865 19.6856 16.574 20.1209 15.6518 20.4305V20.4316Z" fill="url(#paint2_linear_747_318)"/>
    <path d="M15.3991 10.2361C11.0722 8.80766 6.80503 7.41422 2.47705 5.98797L2.15637 5.88625C1.71517 5.74187 1.40666 5.46406 1.3945 5.09875C1.37902 4.64156 2.06459 4.25 2.06459 4.25C2.06459 4.25 1.74392 4.35609 1.62671 4.39109L1.5869 4.40203C1.22974 4.55187 0.916806 4.71922 0.664691 4.95437C0.656951 4.96203 0.653633 4.96641 0.644787 4.97078L0.64147 4.97406C0.453489 5.16219 0.309739 5.37766 0.204691 5.60844C0.105172 5.84359 0.0366141 6.12141 0.00454684 6.45828C0.00101623 6.51837 -0.00045897 6.57856 0.000123765 6.63875V7.35078L0.00454684 7.35516C0.00454684 7.38578 0.000123765 7.41312 0.000123765 7.44484V23.4934C0.000123765 23.5284 0.000123765 23.5602 0.00454684 23.5919C0.00454684 23.5952 0.000123765 23.5952 0.000123765 23.5952V24.4691C0.0200276 24.8836 0.0719988 25.1855 0.177047 25.4162C0.28873 25.6427 0.453489 25.8198 0.682383 25.9642C0.862624 26.0736 1.08267 26.1677 1.35137 26.2705L2.01705 26.4892C2.0657 26.5045 2.09777 26.5122 2.09777 26.5122C1.17113 26.0889 1.24633 25.2434 1.9695 24.9427C1.98056 24.9383 1.9894 24.9339 2.00157 24.9339L2.18181 24.8759C2.18512 24.8759 2.18955 24.8759 2.19286 24.8716C2.20613 24.8683 2.22161 24.8639 2.23709 24.8562L15.6556 20.4397C16.5778 20.1302 16.9903 19.6959 16.9903 18.6744V12.4684C16.9869 11.5245 16.5413 10.6353 15.398 10.2372L15.3991 10.2361Z" fill="url(#paint3_linear_747_318)"/>
  </g>
  <defs>
    <linearGradient id="paint0_linear_747_318" x1="16.5748" y1="15.2753" x2="33.0193" y2="32.1172" gradientUnits="userSpaceOnUse">
      <stop stop-color="#4962CB"/>
      <stop offset="1" stop-color="#1E3393"/>
    </linearGradient>
    <linearGradient id="paint1_linear_747_318" x1="7.83652" y1="0.896876" x2="14.9942" y2="13.5937" gradientUnits="userSpaceOnUse">
      <stop stop-color="#83DFF8"/>
      <stop offset="0.999" stop-color="#58C0EA"/>
    </linearGradient>
    <linearGradient id="paint2_linear_747_318" x1="1.41281" y1="24.7595" x2="16.9865" y2="24.7595" gradientUnits="userSpaceOnUse">
      <stop stop-color="#4962CB"/>
      <stop offset="1" stop-color="#1E3393"/>
    </linearGradient>
    <linearGradient id="paint3_linear_747_318" x1="11.1982" y1="23.0187" x2="0.902782" y2="4.75366" gradientUnits="userSpaceOnUse">
      <stop stop-color="#5169D5"/>
      <stop offset="1" stop-color="#A0AFF9"/>
    </linearGradient>
    <clipPath id="clip0_747_318">
      <rect width="30.9615" height="35" fill="white"/>
    </clipPath>
  </defs>
</svg>