<svg xmlns="http://www.w3.org/2000/svg" width="27" height="17" viewBox="0 0 27 17" fill="none">
  <path d="M25.8036 1.78982C25.9962 1.17943 25.8036 0.735703 24.9513 0.735703H22.1173C21.4025 0.735703 21.0723 1.12423 20.8797 1.53982C20.8797 1.53982 19.4219 5.08969 17.3862 7.39114C16.7259 8.05673 16.4234 8.27865 16.0658 8.27865C15.8731 8.27865 15.6252 8.05674 15.6252 7.4469V1.76113C15.6252 1.04029 15.4056 0.70752 14.8 0.70752H10.3432C9.9027 0.70752 9.62777 1.04029 9.62777 1.37311C9.62777 2.06632 10.6456 2.23299 10.7555 4.17405V8.39169C10.7555 9.30677 10.5932 9.47399 10.2328 9.47399C9.27007 9.47399 6.93185 5.8965 5.52922 1.82009C5.25652 1.01271 4.97946 0.70752 4.26411 0.70752H1.40309C0.577895 0.70752 0.44043 1.09549 0.44043 1.51164C0.44043 2.26056 1.40314 6.03173 4.92426 11.0232C7.26254 14.4324 10.5911 16.2647 13.5895 16.2647C15.4057 16.2647 15.6252 15.8486 15.6252 15.1553V12.5763C15.6252 11.7446 15.7904 11.6061 16.3683 11.6061C16.7806 11.6061 17.5236 11.8273 19.2018 13.4638C21.127 15.4049 21.4572 16.2923 22.5303 16.2923H25.3637C26.1889 16.2923 26.5742 15.8762 26.3539 15.0721C26.1066 14.2679 25.171 13.1034 23.9605 11.717C23.3003 10.9411 22.31 10.0812 22.0075 9.66513C21.5952 9.1104 21.705 8.88853 22.0075 8.38961C21.9799 8.38961 25.4464 3.45336 25.8036 1.78769" fill="#0077FF"/>
</svg>