<svg xmlns="http://www.w3.org/2000/svg" width="29" height="26" viewBox="0 0 29 26" fill="none">
  <path d="M19.4705 22.2136H5.5188C4.10481 22.2219 2.74502 21.6702 1.73647 20.6791C0.727915 19.688 0.152567 18.3381 0.136105 16.9242C0.119644 15.5103 0.663405 14.1473 1.64861 13.133C2.63382 12.1187 3.98039 11.5355 5.39419 11.5108C6.07327 10.0481 7.20372 8.84178 8.61935 8.06926C10.035 7.29674 11.6611 6.99876 13.2587 7.21913C14.8562 7.43949 16.341 8.16657 17.4946 9.29348C18.6482 10.4204 19.4099 11.8877 19.6676 13.4796C20.8008 13.5421 21.8653 14.0429 22.6358 14.8762C23.4063 15.7094 23.8225 16.8097 23.7963 17.9443C23.7701 19.0789 23.3036 20.1588 22.4954 20.9556C21.6873 21.7524 20.6008 22.2035 19.466 22.2136H19.4705ZM5.5188 12.9246C4.4929 12.9492 3.51732 13.374 2.80046 14.1083C2.0836 14.8426 1.6823 15.8281 1.6823 16.8543C1.6823 17.8805 2.0836 18.866 2.80046 19.6003C3.51732 20.3346 4.4929 20.7594 5.5188 20.784H19.4705C20.2517 20.784 21.0008 20.4737 21.5532 19.9214C22.1055 19.369 22.4158 18.6199 22.4158 17.8387C22.4158 17.0576 22.1055 16.3084 21.5532 15.7561C21.0008 15.2037 20.2517 14.8934 19.4705 14.8934C19.3538 14.8939 19.2372 14.9016 19.1216 14.9161C19.0259 14.927 18.9289 14.9184 18.8366 14.8907C18.7443 14.8631 18.6586 14.817 18.5847 14.7552C18.5105 14.6939 18.4497 14.6181 18.406 14.5323C18.3624 14.4466 18.3368 14.3528 18.3309 14.2568C18.2323 12.8695 17.6639 11.5573 16.7195 10.5364C15.7751 9.51557 14.511 8.84697 13.1356 8.64087C11.7603 8.43478 10.3557 8.70349 9.15355 9.40271C7.95139 10.1019 7.02336 11.1899 6.52247 12.4873C6.46719 12.6294 6.36785 12.7501 6.23902 12.8316C6.11018 12.9132 5.95862 12.9513 5.80653 12.9404H5.77934C5.69325 12.9382 5.60715 12.9314 5.5188 12.9314V12.9246Z" fill="#2D2D2D"/>
  <path d="M24.7364 18.0206H23.1278C22.9392 18.0206 22.7582 17.9456 22.6248 17.8122C22.4914 17.6788 22.4164 17.4978 22.4164 17.3091C22.4164 17.1205 22.4914 16.9395 22.6248 16.8061C22.7582 16.6727 22.9392 16.5977 23.1278 16.5977H24.7364C25.4526 16.5976 26.1395 16.3131 26.6459 15.8066C27.1524 15.3002 27.4369 14.6133 27.437 13.8971C27.437 13.1809 27.1524 12.494 26.646 11.9876C26.1395 11.4811 25.4527 11.1966 24.7364 11.1965C24.6297 11.1974 24.523 11.2042 24.417 11.2169C24.3214 11.2286 24.2245 11.2206 24.1321 11.1934C24.0397 11.1663 23.9539 11.1205 23.8798 11.059C23.8058 10.9975 23.7451 10.9215 23.7015 10.8356C23.6579 10.7498 23.6323 10.6559 23.6263 10.5599C23.5358 9.35227 23.0605 8.20551 22.2703 7.2879C21.4801 6.3703 20.4165 5.73018 19.2357 5.46152C18.0551 5.19267 16.8193 5.30928 15.7098 5.79421C14.6003 6.27915 13.6753 7.1069 13.0707 8.15603C12.9755 8.31596 12.8214 8.4322 12.6414 8.47982C12.4615 8.52744 12.2701 8.50263 12.1082 8.41073C11.9463 8.31883 11.8269 8.16715 11.7756 7.98823C11.7243 7.80931 11.7451 7.61741 11.8337 7.45368C12.554 6.17912 13.6519 5.15938 14.9762 4.53504C16.3004 3.9107 17.7857 3.7125 19.2273 3.96776C20.6688 4.22302 21.9958 4.91918 23.0251 5.96026C24.0544 7.00134 24.7354 8.33608 24.9743 9.78048C26.0448 9.84197 27.0493 10.318 27.7746 11.1077C28.5 11.8974 28.8892 12.9386 28.8597 14.0105C28.8303 15.0823 28.3844 16.1006 27.6168 16.8492C26.8491 17.5978 25.82 18.018 24.7478 18.0206H24.7364Z" fill="#2D2D2D"/>
</svg>